<svg id="Layer_1" enable-background="new 0 0 24 24" viewBox="0 0 24 24" xmlns="http://www.w3.org/2000/svg" xmlns:xlink="http://www.w3.org/1999/xlink"><linearGradient id="SVGID_1_" gradientUnits="userSpaceOnUse" x1="1.994" x2="22.006" y1="12" y2="12"><stop offset="0" stop-color="#02beff"></stop><stop offset="1" stop-color="#535bff"></stop></linearGradient><switch><g><path d="m15.3 5.3c-1.1 0-2.3.3-3.3.9-3.2-1.9-7.3-.7-9.1 2.5s-.7 7.3 2.6 9.2c2 1.1 4.5 1.1 6.6 0 3.2 1.8 7.3.6 9.1-2.6s.6-7.3-2.6-9.1c-1-.6-2.2-.9-3.3-.9zm-5 11.2c-.5.2-1 .3-1.5.3-2.7-.1-4.8-2.2-4.8-4.8s2.1-4.7 4.7-4.7c.5 0 1 .1 1.5.3-2.2 2.5-2.2 6.3.1 8.9zm1.7-1.1c-1.9-1.8-1.9-4.8-.2-6.6.1-.1.2-.1.2-.2 1.9 1.8 1.9 4.8.2 6.6-.1.1-.1.1-.2.2zm3.3 1.3c-.5 0-1-.1-1.5-.3 2.3-2.5 2.3-6.4 0-8.9.5-.2 1-.3 1.5-.3 2.6 0 4.7 2.1 4.7 4.7s-2.1 4.8-4.7 4.8z" fill="url(#SVGID_1_)"></path></g></switch></svg>